<?xml version="1.0" encoding="UTF-8"?>
<svg version="1.1" xmlns="http://www.w3.org/2000/svg" width="128" height="128">
<path d="M0 0 C1.30130859 -0.02900391 2.60261719 -0.05800781 3.94335938 -0.08789062 C5.18794922 -0.09626953 6.43253906 -0.10464844 7.71484375 -0.11328125 C8.85945068 -0.12786377 10.00405762 -0.14244629 11.18334961 -0.1574707 C14.0625 0.3125 14.0625 0.3125 15.95922852 2.02661133 C17.34357506 4.89486464 17.56757997 6.14333039 17.0625 9.3125 C15.14735841 11.72611041 13.27955416 13.78896437 11.09912109 15.9387207 C10.14797424 16.90541939 10.14797424 16.90541939 9.1776123 17.89164734 C7.07629209 20.02008913 4.95706476 22.12959073 2.8359375 24.23828125 C1.36991299 25.71021237 -0.09544075 27.18281185 -1.56015015 28.65605164 C-4.6339172 31.74170874 -7.71681585 34.81787312 -10.80615234 37.88793945 C-14.76615548 41.82506121 -18.70079798 45.78646733 -22.62871742 49.7555666 C-25.64982633 52.80223898 -28.6848689 55.83471975 -31.72422409 58.86318016 C-33.18083647 60.31830435 -34.63286023 61.77803677 -36.08018875 63.2423954 C-38.10528885 65.28743495 -40.14856984 67.31238471 -42.19775391 69.33325195 C-42.79333099 69.94254547 -43.38890808 70.55183899 -44.00253296 71.17959595 C-46.85576517 73.95448944 -48.19359815 75.21124884 -52.23683167 75.76156616 C-55.30092276 75.25207019 -56.3886682 74.61138518 -58.55078125 72.42578125 C-59.4624707 71.5121582 -59.4624707 71.5121582 -60.39257812 70.58007812 C-61.31200195 69.61231445 -61.31200195 69.61231445 -62.25 68.625 C-62.88228516 67.99916016 -63.51457031 67.37332031 -64.16601562 66.72851562 C-67.49456844 63.32147604 -69.47541748 61.21141083 -69.9375 56.3125 C-68.88691711 54.4618988 -68.88691711 54.4618988 -67.1809082 52.68920898 C-66.20246445 51.65496292 -66.20246445 51.65496292 -65.20425415 50.599823 C-64.45622528 49.84500641 -63.70819641 49.09018982 -62.9375 48.3125 C-62.13218842 47.48315948 -61.32687683 46.65381897 -60.49716187 45.79934692 C-57.6988397 42.94098507 -54.87467915 40.1103411 -52.04296875 37.28515625 C-51.00386734 36.24537978 -49.96491429 35.20545502 -48.92610168 34.16539001 C-46.76525932 32.00308415 -44.60264564 29.84257046 -42.4387207 27.68334961 C-39.6634052 24.91377373 -36.89266168 22.13967384 -34.12319469 19.36425114 C-31.98636511 17.22381591 -29.8471695 15.08575819 -27.70723915 12.94842339 C-26.68381651 11.92566779 -25.66113609 10.90216892 -24.63921165 9.87791634 C-23.21786354 8.45403708 -21.79297808 7.03369152 -20.36791992 5.61352539 C-19.55852463 4.80492569 -18.74912933 3.99632599 -17.91520691 3.16322327 C-13.07337292 -1.3677286 -6.2719959 0.04645923 0 0 Z " fill="#010405" transform="translate(78.9375,5.6875)"/>
<path d="M0 0 C1.30130859 -0.02900391 2.60261719 -0.05800781 3.94335938 -0.08789062 C5.18794922 -0.09626953 6.43253906 -0.10464844 7.71484375 -0.11328125 C8.85945068 -0.12786377 10.00405762 -0.14244629 11.18334961 -0.1574707 C14.0625 0.3125 14.0625 0.3125 16.02172852 1.96411133 C17.4716528 5.2357092 17.14019738 6.91978921 16.0625 10.3125 C14.09716797 12.76611328 14.09716797 12.76611328 11.5546875 15.1328125 C10.19923828 16.43025391 10.19923828 16.43025391 8.81640625 17.75390625 C7.86636719 18.63949219 6.91632813 19.52507812 5.9375 20.4375 C4.04879231 22.19910757 2.1705522 23.97202783 0.3046875 25.7578125 C-0.95045654 26.92594482 -0.95045654 26.92594482 -2.23095703 28.11767578 C-4.13207712 30.11215639 -4.13207712 30.11215639 -3.97998047 32.31030273 C-2.56036634 35.03682627 -0.72866582 36.78472008 1.5 38.90234375 C2.39460938 39.76923828 3.28921875 40.63613281 4.2109375 41.52929688 C6.1100293 43.34123857 8.01106917 45.15114071 9.9140625 46.95898438 C10.80867188 47.82716797 11.70328125 48.69535156 12.625 49.58984375 C13.45128906 50.37609131 14.27757812 51.16233887 15.12890625 51.97241211 C17.24858443 54.53770445 17.8539208 56.01694872 18.0625 59.3125 C16.90234375 61.9921875 16.90234375 61.9921875 14.0625 64.3125 C5.4318006 67.29256904 -5.39125374 67.89024851 -13.9375 64.3125 C-23.76228264 58.26509477 -39.76985983 44.39829053 -43.65081787 33.26647949 C-44.10601198 30.16394931 -42.75662939 28.79727748 -40.9375 26.3125 C-39.07572675 24.27703108 -37.20680411 22.32450413 -35.24609375 20.390625 C-34.70018082 19.84517029 -34.15426788 19.29971558 -33.59181213 18.73773193 C-32.4435413 17.59246847 -31.29285476 16.44962248 -30.13989258 15.30908203 C-28.37193648 13.55946826 -26.61219948 11.80189778 -24.85351562 10.04296875 C-23.73484723 8.92921298 -22.61572244 7.8159154 -21.49609375 6.703125 C-20.968983 6.17712708 -20.44187225 5.65112915 -19.89878845 5.10919189 C-13.73581622 -0.97364974 -8.39393196 0.06217727 0 0 Z " fill="#000102" transform="translate(78.9375,57.6875)"/>
<path d="M0 0 C1.30130859 -0.02900391 2.60261719 -0.05800781 3.94335938 -0.08789062 C5.18794922 -0.09626953 6.43253906 -0.10464844 7.71484375 -0.11328125 C8.85945068 -0.12786377 10.00405762 -0.14244629 11.18334961 -0.1574707 C14.0625 0.3125 14.0625 0.3125 15.95922852 2.02661133 C17.34357506 4.89486464 17.56757997 6.14333039 17.0625 9.3125 C15.14735841 11.72611041 13.27955416 13.78896437 11.09912109 15.9387207 C10.14797424 16.90541939 10.14797424 16.90541939 9.1776123 17.89164734 C7.07629209 20.02008913 4.95706476 22.12959073 2.8359375 24.23828125 C1.36991299 25.71021237 -0.09544075 27.18281185 -1.56015015 28.65605164 C-4.6339172 31.74170874 -7.71681585 34.81787312 -10.80615234 37.88793945 C-14.76615548 41.82506121 -18.70079798 45.78646733 -22.62871742 49.7555666 C-25.64982633 52.80223898 -28.6848689 55.83471975 -31.72422409 58.86318016 C-33.18083647 60.31830435 -34.63286023 61.77803677 -36.08018875 63.2423954 C-38.10528885 65.28743495 -40.14856984 67.31238471 -42.19775391 69.33325195 C-42.79333099 69.94254547 -43.38890808 70.55183899 -44.00253296 71.17959595 C-46.85576517 73.95448944 -48.19359815 75.21124884 -52.23683167 75.76156616 C-55.30092276 75.25207019 -56.3886682 74.61138518 -58.55078125 72.42578125 C-59.4624707 71.5121582 -59.4624707 71.5121582 -60.39257812 70.58007812 C-61.31200195 69.61231445 -61.31200195 69.61231445 -62.25 68.625 C-62.88228516 67.99916016 -63.51457031 67.37332031 -64.16601562 66.72851562 C-67.49456844 63.32147604 -69.47541748 61.21141083 -69.9375 56.3125 C-68.88691711 54.4618988 -68.88691711 54.4618988 -67.1809082 52.68920898 C-66.20246445 51.65496292 -66.20246445 51.65496292 -65.20425415 50.599823 C-64.45622528 49.84500641 -63.70819641 49.09018982 -62.9375 48.3125 C-62.13218842 47.48315948 -61.32687683 46.65381897 -60.49716187 45.79934692 C-57.6988397 42.94098507 -54.87467915 40.1103411 -52.04296875 37.28515625 C-51.00386734 36.24537978 -49.96491429 35.20545502 -48.92610168 34.16539001 C-46.76525932 32.00308415 -44.60264564 29.84257046 -42.4387207 27.68334961 C-39.6634052 24.91377373 -36.89266168 22.13967384 -34.12319469 19.36425114 C-31.98636511 17.22381591 -29.8471695 15.08575819 -27.70723915 12.94842339 C-26.68381651 11.92566779 -25.66113609 10.90216892 -24.63921165 9.87791634 C-23.21786354 8.45403708 -21.79297808 7.03369152 -20.36791992 5.61352539 C-19.55852463 4.80492569 -18.74912933 3.99632599 -17.91520691 3.16322327 C-13.07337292 -1.3677286 -6.2719959 0.04645923 0 0 Z M-39.22290039 28.88128662 C-42.20690356 32.12406875 -45.26571749 35.29465211 -48.31835938 38.47265625 C-54.2655268 44.68556869 -60.12686485 50.97171934 -65.9375 57.3125 C-64.18151605 61.05372551 -62.00688715 63.63941676 -59.125 66.625 C-58.27292969 67.52863281 -57.42085937 68.43226562 -56.54296875 69.36328125 C-54.17676037 71.54382789 -54.17676037 71.54382789 -51.6668396 71.29316711 C-47.84735309 69.92080407 -45.45869849 67.3995365 -42.66259766 64.57104492 C-42.05553986 63.97260269 -41.44848206 63.37416046 -40.82302856 62.75758362 C-38.82223346 60.77946588 -36.83650768 58.78698181 -34.8515625 56.79296875 C-33.46677053 55.41341024 -32.08145845 54.03437362 -30.69564819 52.65583801 C-27.79576151 49.7663579 -24.90348595 46.86951245 -22.01611328 43.9675293 C-18.30868863 40.24288687 -14.58125933 36.53901999 -10.8476963 32.84060192 C-7.98392425 29.99874525 -5.13188716 27.14533991 -2.28321457 24.28835487 C-0.91304193 22.91736009 0.46100509 21.55022636 1.83890915 20.18700218 C3.7594786 18.28377608 5.66349366 16.36540524 7.56396484 14.44213867 C8.13945068 13.87834503 8.71493652 13.31455139 9.30786133 12.7336731 C11.05191967 11.00603232 11.05191967 11.00603232 13.0625 8.3125 C13.07038899 5.97897753 13.07038899 5.97897753 12.0625 4.3125 C-12.68113611 -1.31332693 -23.86226314 12.03852947 -39.22290039 28.88128662 Z " fill="#3577E8" transform="translate(78.9375,5.6875)"/>
<path d="M0 0 C1.30130859 -0.02900391 2.60261719 -0.05800781 3.94335938 -0.08789062 C5.18794922 -0.09626953 6.43253906 -0.10464844 7.71484375 -0.11328125 C8.85945068 -0.12786377 10.00405762 -0.14244629 11.18334961 -0.1574707 C14.0625 0.3125 14.0625 0.3125 16.02172852 1.96411133 C17.4716528 5.2357092 17.14019738 6.91978921 16.0625 10.3125 C14.09716797 12.76611328 14.09716797 12.76611328 11.5546875 15.1328125 C10.19923828 16.43025391 10.19923828 16.43025391 8.81640625 17.75390625 C7.86636719 18.63949219 6.91632813 19.52507812 5.9375 20.4375 C4.04879231 22.19910757 2.1705522 23.97202783 0.3046875 25.7578125 C-0.95045654 26.92594482 -0.95045654 26.92594482 -2.23095703 28.11767578 C-4.13207712 30.11215639 -4.13207712 30.11215639 -3.97998047 32.31030273 C-2.56036634 35.03682627 -0.72866582 36.78472008 1.5 38.90234375 C2.39460938 39.76923828 3.28921875 40.63613281 4.2109375 41.52929688 C6.1100293 43.34123857 8.01106917 45.15114071 9.9140625 46.95898438 C10.80867188 47.82716797 11.70328125 48.69535156 12.625 49.58984375 C13.45128906 50.37609131 14.27757812 51.16233887 15.12890625 51.97241211 C17.24858443 54.53770445 17.8539208 56.01694872 18.0625 59.3125 C16.90234375 61.9921875 16.90234375 61.9921875 14.0625 64.3125 C5.4318006 67.29256904 -5.39125374 67.89024851 -13.9375 64.3125 C-23.76228264 58.26509477 -39.76985983 44.39829053 -43.65081787 33.26647949 C-44.10601198 30.16394931 -42.75662939 28.79727748 -40.9375 26.3125 C-39.07572675 24.27703108 -37.20680411 22.32450413 -35.24609375 20.390625 C-34.70018082 19.84517029 -34.15426788 19.29971558 -33.59181213 18.73773193 C-32.4435413 17.59246847 -31.29285476 16.44962248 -30.13989258 15.30908203 C-28.37193648 13.55946826 -26.61219948 11.80189778 -24.85351562 10.04296875 C-23.73484723 8.92921298 -22.61572244 7.8159154 -21.49609375 6.703125 C-20.968983 6.17712708 -20.44187225 5.65112915 -19.89878845 5.10919189 C-13.73581622 -0.97364974 -8.39393196 0.06217727 0 0 Z M-27.5625 17 C-28.43538162 17.90064682 -28.43538162 17.90064682 -29.32589722 18.81948853 C-30.99101669 20.56593706 -32.61731407 22.33876134 -34.2265625 24.13671875 C-34.72113449 24.67976654 -35.21570648 25.22281433 -35.7252655 25.78231812 C-37.83454038 28.27067504 -38.94955488 29.69659001 -38.88452148 33.01928711 C-37.47097098 36.44220019 -35.01892857 38.69076745 -32.375 41.1875 C-31.83214355 41.7148877 -31.28928711 42.24227539 -30.72998047 42.78564453 C-27.20801065 46.18238876 -23.60709427 49.47900342 -19.8515625 52.6171875 C-17.9375 54.3125 -17.9375 54.3125 -15.515625 57.484375 C-12.50179709 60.52458215 -10.10012463 60.76391704 -5.8828125 60.8984375 C-3.60863385 60.85877159 -1.3348242 60.7875233 0.9375 60.6875 C2.1028125 60.66042969 3.268125 60.63335937 4.46875 60.60546875 C7.33524172 60.53498125 10.19790655 60.43649461 13.0625 60.3125 C12.5985267 55.66300454 10.96667466 53.79716192 7.58984375 50.66015625 C6.69072266 49.80099609 5.79160156 48.94183594 4.86523438 48.05664062 C2.95494045 46.26875135 1.04086887 44.48488984 -0.87695312 42.70507812 C-1.77478516 41.84462891 -2.67261719 40.98417969 -3.59765625 40.09765625 C-4.42918213 39.32301025 -5.26070801 38.54836426 -6.11743164 37.75024414 C-8.38947102 34.70714378 -8.38331191 33.02856419 -7.9375 29.3125 C-6.86328125 27.3984375 -6.86328125 27.3984375 -5.25 25.6875 C-4.62480469 25.01976563 -3.99960938 24.35203125 -3.35546875 23.6640625 C-1.46836218 21.82878277 0.43847724 20.04217071 2.38671875 18.2734375 C2.97042236 17.74314941 3.55412598 17.21286133 4.15551758 16.66650391 C5.33002386 15.60930343 6.51333637 14.56179346 7.70581055 13.52490234 C10.63310253 10.92066639 12.50381214 9.24055222 13.0625 5.3125 C9.81911392 2.06911392 2.06195262 2.67507401 -2.21435547 2.4465332 C-13.74606298 2.85890277 -19.97058503 9.08460838 -27.5625 17 Z " fill="#347DD2" transform="translate(78.9375,57.6875)"/>
<path d="M0 0 C0 3 0 3 -1.34765625 4.46484375 C-2.49110049 5.44679928 -3.63694153 6.42597069 -4.78515625 7.40234375 C-6.21047694 8.90789086 -6.21047694 8.90789086 -5.85327148 10.81298828 C-4.68372546 13.81064016 -2.89106505 15.37729827 -0.5625 17.58984375 C0.33210938 18.45673828 1.22671875 19.32363281 2.1484375 20.21679688 C4.0475293 22.02873857 5.94856917 23.83864071 7.8515625 25.64648438 C8.74617188 26.51466797 9.64078125 27.38285156 10.5625 28.27734375 C11.38878906 29.06359131 12.21507812 29.84983887 13.06640625 30.65991211 C15.23585032 33.28543249 16.03704516 34.58953004 16 38 C14.45654297 40.76879883 14.45654297 40.76879883 12 43 C7.4361709 44.03273846 2.79207979 43.74176837 -1.875 43.6875 C-3.14214844 43.71521484 -4.40929687 43.74292969 -5.71484375 43.77148438 C-16.08577027 43.74422116 -16.08577027 43.74422116 -19.796875 40.19921875 C-22.23543982 36.65811132 -23.16555501 34.17222495 -24 30 C-20.84944632 31.21175142 -19.7853455 32.27761981 -17.65625 35.03125 C-13.82709424 38.92600158 -9.83069625 38.76084137 -4.5859375 38.8828125 C-3.44382812 38.88023438 -2.30171875 38.87765625 -1.125 38.875 C0.0403125 38.895625 1.205625 38.91625 2.40625 38.9375 C5.27155012 38.98447213 8.13439464 39.00445266 11 39 C9.61582779 34.71928422 7.69800182 32.4030687 4.4296875 29.34765625 C3.53378906 28.48849609 2.63789062 27.62933594 1.71484375 26.74414062 C-0.18057479 24.9543128 -2.08164825 23.17045487 -3.98828125 21.39257812 C-4.88160156 20.53212891 -5.77492188 19.67167969 -6.6953125 18.78515625 C-7.52047363 18.01051025 -8.34563477 17.23586426 -9.19580078 16.43774414 C-11.45244018 13.38868536 -11.48768024 11.71315827 -11 8 C-9.35546875 5.91796875 -9.35546875 5.91796875 -7.1875 4.1875 C-6.47980469 3.60355469 -5.77210937 3.01960938 -5.04296875 2.41796875 C-3 1 -3 1 0 0 Z " fill="#3679E2" transform="translate(81,79)"/>
<path d="M0 0 C0.35546875 2.60791016 0.35546875 2.60791016 0 6 C-1.83582316 8.35975387 -3.53924374 10.24215758 -5.6875 12.2734375 C-6.26459717 12.84204498 -6.84169434 13.41065247 -7.4362793 13.99649048 C-9.27722123 15.80392737 -11.13793408 17.58935857 -13 19.375 C-14.2539678 20.5988648 -15.50658907 21.82411087 -16.7578125 23.05078125 C-19.82316496 26.05008794 -22.90641687 29.02983109 -26 32 C-24.33566747 35.51658105 -22.3958845 37.99486973 -19.6875 40.8125 C-18.92824219 41.62332031 -18.16898438 42.43414062 -17.38671875 43.26953125 C-15.15491691 45.23461781 -15.15491691 45.23461781 -12.5078125 45.046875 C-9.3181348 43.71535845 -7.55399979 41.94528336 -5.1875 39.4375 C-4.39730469 38.61121094 -3.60710938 37.78492188 -2.79296875 36.93359375 C-1.90544922 35.97646484 -1.90544922 35.97646484 -1 35 C-0.34 36.32 0.32 37.64 1 39 C-0.69054056 40.85297685 -2.39922287 42.68033344 -4.125 44.5 C-4.599375 45.02464844 -5.07375 45.54929688 -5.5625 46.08984375 C-7.89019834 48.51190824 -9.64119215 49.90608385 -12.91015625 50.76171875 C-17.58989474 49.60805376 -20.05625867 46.73994224 -23.3125 43.3125 C-23.94478516 42.68666016 -24.57707031 42.06082031 -25.22851562 41.41601562 C-30.71757206 35.79752807 -30.71757206 35.79752807 -31 31 C-29.98388672 29.18359375 -29.98388672 29.18359375 -28.3046875 27.4375 C-27.6559668 26.75171875 -27.00724609 26.0659375 -26.33886719 25.359375 C-25.56704102 24.58078125 -24.79521484 23.8021875 -24 23 C-22.65276855 21.61554687 -22.65276855 21.61554687 -21.27832031 20.203125 C-18.77153859 17.63913958 -16.2408931 15.10016806 -13.70019531 12.56982422 C-12.10361866 10.97869157 -10.51256389 9.38217285 -8.921875 7.78515625 C-7.90917535 6.773116 -6.8961663 5.76138524 -5.8828125 4.75 C-4.96902832 3.83734375 -4.05524414 2.9246875 -3.11376953 1.984375 C-1 0 -1 0 0 0 Z " fill="#AD51F4" transform="translate(40,31)"/>
<path d="M0 0 C0.41015625 2.58984375 0.41015625 2.58984375 0 6 C-1.89374246 8.50477206 -4.20647972 10.49824694 -6.5625 12.5625 C-11.25309456 16.28579522 -11.25309456 16.28579522 -13.23046875 21.55859375 C-11.60238219 24.78892422 -9.3628415 27.06453155 -6.75 29.5 C-6.27175781 29.96019531 -5.79351562 30.42039062 -5.30078125 30.89453125 C-2.94693012 33.15907638 -0.57273803 35.4011152 1.80859375 37.63671875 C4.40226019 40.43381001 4.73847486 42.25147301 5 46 C-0.36116726 41.51125366 -5.41328609 36.80016353 -10.375 31.875 C-11.09816406 31.17246094 -11.82132813 30.46992187 -12.56640625 29.74609375 C-13.25347656 29.06417969 -13.94054688 28.38226563 -14.6484375 27.6796875 C-15.26895996 27.06851074 -15.88948242 26.45733398 -16.52880859 25.82763672 C-18.13545163 23.83173069 -18.69483161 22.53089339 -19 20 C-16.79779139 14.81675289 -12.32889313 11.07078789 -8.375 7.1875 C-7.68148437 6.49462891 -6.98796875 5.80175781 -6.2734375 5.08789062 C-1.14043257 0 -1.14043257 0 0 0 Z " fill="#9C4DEF" transform="translate(54,69)"/>
<path d="M0 0 C-1.53956134 3.65881177 -3.74089057 5.9829179 -6.54150391 8.76855469 C-7.00021378 9.22755661 -7.45892365 9.68655853 -7.93153381 10.1594696 C-9.4418491 11.66839675 -10.95911388 13.17012454 -12.4765625 14.671875 C-13.5278917 15.71947224 -14.57877885 16.76751328 -15.62924194 17.815979 C-18.39001016 20.5691252 -21.15673249 23.31621127 -23.92474365 26.06207275 C-26.75032928 28.86716916 -29.57023445 31.67796321 -32.390625 34.48828125 C-37.92154374 39.99777532 -43.45876589 45.50087877 -49 51 C-47.51377586 54.12382297 -46.00212414 56.21829585 -43.5 58.625 C-42.8915625 59.21539062 -42.283125 59.80578125 -41.65625 60.4140625 C-41.1096875 60.93742187 -40.563125 61.46078125 -40 62 C-39.34 62.66 -38.68 63.32 -38 64 C-39.485 64.495 -39.485 64.495 -41 65 C-44.96 61.04 -48.92 57.08 -53 53 C-51.0544264 49.10885281 -49.3409134 47.08773837 -46.30664062 44.04785156 C-45.8316362 43.5693425 -45.35663177 43.09083344 -44.86723328 42.5978241 C-43.30188647 41.02370191 -41.72937006 39.45697606 -40.15625 37.890625 C-39.06501471 36.7980423 -37.97407645 35.70516288 -36.88342285 34.61199951 C-34.60016205 32.32579351 -32.31333087 30.0432362 -30.02392578 27.76318359 C-27.08470373 24.83538273 -24.15458691 21.89865908 -21.22705841 18.9591713 C-18.97794566 16.70284671 -16.72411 14.45128863 -14.46879578 12.20116425 C-13.38601201 11.11971745 -12.30471969 10.03677529 -11.22492981 8.95233917 C-9.71918137 7.44153368 -8.2072098 5.93725137 -6.69335938 4.43457031 C-5.83335327 3.5761554 -4.97334717 2.71774048 -4.08728027 1.83331299 C-2 0 -2 0 0 0 Z " fill="#03060B" transform="translate(66,12)"/>
<path d="M0 0 C2.5 1 2.5 1 4 2 C1.24921116 2.91692961 -0.35948913 3.10886083 -3.1875 3.0625 C-5.0746875 3.0315625 -5.0746875 3.0315625 -7 3 C-7.33439087 3.82226074 -7.33439087 3.82226074 -7.67553711 4.66113281 C-9.40205728 7.70999239 -11.71687539 9.98365833 -14.19140625 12.421875 C-14.69671371 12.92672424 -15.20202118 13.43157349 -15.72264099 13.95172119 C-16.78692989 15.01299872 -17.85363849 16.07185455 -18.92260742 17.12841797 C-20.5655675 18.75303325 -22.20029617 20.38559778 -23.83398438 22.01953125 C-24.86931932 23.04995399 -25.9051107 24.07991835 -26.94140625 25.109375 C-27.43306778 25.59992371 -27.92472931 26.09047241 -28.43128967 26.59588623 C-31.8839275 30 -31.8839275 30 -33 30 C-33.46162909 26.05288955 -33.34324396 24.45828993 -30.92041016 21.22338867 C-29.97542287 20.27262661 -29.01385077 19.33815204 -28.0390625 18.41796875 C-27.53329681 17.91832108 -27.02753113 17.4186734 -26.50643921 16.90388489 C-24.89285249 15.31716383 -23.25935318 13.75279262 -21.625 12.1875 C-20.53254072 11.11657259 -19.44137908 10.04431973 -18.3515625 8.97070312 C-8.45388471 -0.71841313 -8.45388471 -0.71841313 0 0 Z " fill="#47D7C5" transform="translate(73,6)"/>
<path d="M0 0 C-0.52079608 3.87786974 -1.34289114 5.84238083 -4.11108398 8.59692383 C-4.76523788 9.25723099 -5.41939178 9.91753815 -6.09336853 10.59785461 C-6.80376785 11.2938829 -7.51416718 11.98991119 -8.24609375 12.70703125 C-9.33556053 13.79512337 -9.33556053 13.79512337 -10.44703674 14.90519714 C-11.9815344 16.43366008 -13.52088266 17.95726653 -15.06469727 19.47631836 C-17.43564217 21.81067085 -19.79011129 24.16071366 -22.14257812 26.51367188 C-23.63447456 27.99574063 -25.12728221 29.4768928 -26.62109375 30.95703125 C-27.32946884 31.66318069 -28.03784393 32.36933014 -28.76768494 33.09687805 C-29.424991 33.74142441 -30.08229706 34.38597076 -30.75952148 35.05004883 C-31.33830551 35.62120926 -31.91708954 36.19236969 -32.51341248 36.78083801 C-34 38 -34 38 -36 38 C-35.47920392 34.12213026 -34.65710886 32.15761917 -31.88891602 29.40307617 C-31.23476212 28.74276901 -30.58060822 28.08246185 -29.90663147 27.40214539 C-29.19623215 26.7061171 -28.48583282 26.01008881 -27.75390625 25.29296875 C-26.66443947 24.20487663 -26.66443947 24.20487663 -25.55296326 23.09480286 C-24.0184656 21.56633992 -22.47911734 20.04273347 -20.93530273 18.52368164 C-18.56435783 16.18932915 -16.20988871 13.83928634 -13.85742188 11.48632812 C-12.36552544 10.00425937 -10.87271779 8.5231072 -9.37890625 7.04296875 C-8.67053116 6.33681931 -7.96215607 5.63066986 -7.23231506 4.90312195 C-6.24635597 3.93630241 -6.24635597 3.93630241 -5.24047852 2.94995117 C-4.66169449 2.37879074 -4.08291046 1.80763031 -3.48658752 1.21916199 C-2 0 -2 0 0 0 Z " fill="#4EECCE" transform="translate(76,31)"/>
<path d="M0 0 C0.94101563 0.00322266 1.88203125 0.00644531 2.8515625 0.00976562 C3.83640625 0.01814453 4.82125 0.02652344 5.8359375 0.03515625 C6.82851562 0.03966797 7.82109375 0.04417969 8.84375 0.04882812 C11.2995391 0.0606348 13.75520854 0.07710225 16.2109375 0.09765625 C16.7059375 1.58265625 16.7059375 1.58265625 17.2109375 3.09765625 C15.25414062 2.99710938 15.25414062 2.99710938 13.2578125 2.89453125 C2.58888952 2.44672044 2.58888952 2.44672044 -6.75390625 6.8359375 C-9.72086533 9.69625805 -12.25803803 12.85187439 -14.7890625 16.09765625 C-15.1190625 16.09765625 -15.4490625 16.09765625 -15.7890625 16.09765625 C-16.16963142 12.34089735 -16.20470096 10.64927519 -13.890625 7.578125 C-13.07335938 6.82144531 -12.25609375 6.06476562 -11.4140625 5.28515625 C-10.60195313 4.51558594 -9.78984375 3.74601562 -8.953125 2.953125 C-5.77247264 0.22603137 -4.10559241 -0.02473248 0 0 Z " fill="#4BDFC6" transform="translate(69.7890625,57.90234375)"/>
<path d="M0 0 C0.495 1.485 0.495 1.485 1 3 C0.36835937 2.87431641 -0.26328125 2.74863281 -0.9140625 2.61914062 C-8.8744842 1.25990436 -18.47972749 -0.2799487 -25.7633667 4.04772949 C-34.34824918 10.32662474 -41.21931637 18.89639514 -48 27 C-48.66 27.66 -49.32 28.32 -50 29 C-49.2486223 21.70980777 -43.32997263 16.76778399 -38.5 11.6875 C-37.9745459 11.13175293 -37.4490918 10.57600586 -36.90771484 10.00341797 C-25.83827984 -1.40074443 -15.66133151 -3.11628535 0 0 Z " fill="#02070D" transform="translate(91,62)"/>
<path d="M0 0 C0 3.73258988 -1.27189931 4.62444563 -3.80767822 7.18093872 C-4.64924469 8.00632645 -4.64924469 8.00632645 -5.5078125 8.84838867 C-6.38563385 9.72686714 -6.38563385 9.72686714 -7.28118896 10.62309265 C-9.22210132 12.56191084 -11.17343266 14.48988079 -13.125 16.41796875 C-14.47086663 17.75824168 -15.81607352 19.09917741 -17.16064453 20.44075012 C-20.70509398 23.9737331 -24.25845964 27.49761582 -27.8137207 31.01971436 C-31.43850555 34.61383729 -35.05483587 38.21644441 -38.671875 41.81835938 C-45.7729744 48.88726282 -52.8835166 55.94658672 -60 63 C-60.66 62.67 -61.32 62.34 -62 62 C-41.54 41.54 -21.08 21.08 0 0 Z " fill="#2470BE" transform="translate(94,17)"/>
<path d="M0 0 C5.42919099 2.35591941 9.12204517 6.7534951 13.25 10.875 C14.09046875 11.69097656 14.9309375 12.50695312 15.796875 13.34765625 C16.5909375 14.13785156 17.385 14.92804688 18.203125 15.7421875 C18.93176758 16.4626123 19.66041016 17.18303711 20.41113281 17.92529297 C22 20 22 20 22 24 C13.75 24 5.5 24 -3 24 C-3 23.34 -3 22.68 -3 22 C4.26 21.67 11.52 21.34 19 21 C17.6284375 19.65164062 16.256875 18.30328125 14.84375 16.9140625 C13.06223958 15.15130482 11.28100369 13.38826966 9.5 11.625 C8.59378906 10.73554687 7.68757813 9.84609375 6.75390625 8.9296875 C5.89667969 8.07890625 5.03945312 7.228125 4.15625 6.3515625 C3.36025391 5.56604004 2.56425781 4.78051758 1.74414062 3.97119141 C0 2 0 2 0 0 Z " fill="#01070C" transform="translate(70,94)"/>
<path d="M0 0 C0 3 0 3 -1.34765625 4.46484375 C-2.49110049 5.44679928 -3.63694153 6.42597069 -4.78515625 7.40234375 C-6.23420076 8.93856492 -6.23420076 8.93856492 -5.83203125 11.04296875 C-5.03159416 13.2645497 -5.03159416 13.2645497 -2.625 15.375 C0.08796456 18.08796456 1.46026557 20.51533787 3 24 C2.01 24.33 1.02 24.66 0 25 C-1.85297685 23.30945944 -3.68033344 21.60077713 -5.5 19.875 C-6.02464844 19.400625 -6.54929687 18.92625 -7.08984375 18.4375 C-9.65016101 15.97693536 -10.92638436 14.39574584 -11.58203125 10.87109375 C-10.87600652 7.38835431 -9.93606212 6.38139733 -7.1875 4.1875 C-6.47980469 3.60355469 -5.77210937 3.01960938 -5.04296875 2.41796875 C-3 1 -3 1 0 0 Z " fill="#46C8DA" transform="translate(81,79)"/>
<path d="M0 0 C0.33 0 0.66 0 1 0 C1.29264728 3.43860556 1.44728226 5.35748659 -0.56054688 8.24169922 C-1.27275391 8.92248535 -1.98496094 9.60327148 -2.71875 10.3046875 C-3.48574219 11.05234375 -4.25273438 11.8 -5.04296875 12.5703125 C-5.85378906 13.33085938 -6.66460937 14.09140625 -7.5 14.875 C-8.31082031 15.65875 -9.12164063 16.4425 -9.95703125 17.25 C-11.95853249 19.18086002 -13.97265624 21.09635212 -16 23 C-16.33 22.01 -16.66 21.02 -17 20 C-14.26964664 15.13763268 -10.62701346 11.22287793 -6.8125 7.1875 C-5.99362305 6.31061523 -5.99362305 6.31061523 -5.15820312 5.41601562 C-1.44294085 1.44294085 -1.44294085 1.44294085 0 0 Z " fill="#7A49E3" transform="translate(39,31)"/>
<path d="M0 0 C4.13639336 1.59092052 7.23213248 4.60474918 10 8 C10 8.66 10 9.32 10 10 C14.62 10 19.24 10 24 10 C24 10.99 24 11.98 24 13 C9.92789272 13.90248669 9.92789272 13.90248669 5.671875 11.91015625 C2.1442628 8.55179817 0.93773787 4.68868935 0 0 Z " fill="#49DCD7" transform="translate(57,109)"/>
<path d="M0 0 C-0.30970894 5.38493928 -3.35430107 7.82467404 -7.0625 11.3125 C-7.63033203 11.86228516 -8.19816406 12.41207031 -8.78320312 12.97851562 C-10.17990925 14.32827365 -11.58878837 15.66541525 -13 17 C-13.99 16.01 -14.98 15.02 -16 14 C-13.71643754 11.65861457 -11.42186626 9.32833018 -9.125 7 C-8.47402344 6.33226562 -7.82304688 5.66453125 -7.15234375 4.9765625 C-6.52714844 4.34492187 -5.90195313 3.71328125 -5.2578125 3.0625 C-4.6817627 2.47597656 -4.10571289 1.88945313 -3.51220703 1.28515625 C-2 0 -2 0 0 0 Z " fill="#45C2DB" transform="translate(76,31)"/>
<path d="M0 0 C2.5 1 2.5 1 4 2 C1.24921116 2.91692961 -0.35948913 3.10886083 -3.1875 3.0625 C-5.0746875 3.0315625 -5.0746875 3.0315625 -7 3 C-7.2475 3.598125 -7.495 4.19625 -7.75 4.8125 C-9.16370012 7.28647521 -10.65055383 8.43370255 -13 10 C-13.66 8.68 -14.32 7.36 -15 6 C-10.10327877 0.85844271 -7.1505792 -0.93778088 0 0 Z " fill="#42C0CE" transform="translate(73,6)"/>
<path d="M0 0 C1 2 1 2 0 5.1875 C-2.01425472 9.68883918 -5.38488802 12.74144701 -9 16 C-9.66 15.34 -10.32 14.68 -11 14 C-9.42219077 10.28954753 -7.09296752 7.70093616 -4.375 4.75 C-3.55773437 3.85796875 -2.74046875 2.9659375 -1.8984375 2.046875 C-1.27195312 1.37140625 -0.64546875 0.6959375 0 0 Z " fill="#9449E5" transform="translate(23,47)"/>
<path d="M0 0 C0.5 2.5 0.5 2.5 0 6 C-2.41377734 8.95370122 -5.13904999 11.48389665 -8 14 C-8.66 13.67 -9.32 13.34 -10 13 C-9.50857886 8.61560205 -8.17446868 6.69757655 -5 3.6875 C-4.278125 2.99011719 -3.55625 2.29273437 -2.8125 1.57421875 C-1 0 -1 0 0 0 Z " fill="#844AED" transform="translate(54,69)"/>
<path d="M0 0 C7.92 0 15.84 0 24 0 C24.33 0.99 24.66 1.98 25 3 C22.24921116 3.91692961 20.64051087 4.10886083 17.8125 4.0625 C15.9253125 4.0315625 15.9253125 4.0315625 14 4 C14 3.34 14 2.68 14 2 C7.07 1.505 7.07 1.505 0 1 C0 0.67 0 0.34 0 0 Z " fill="#3991D5" transform="translate(67,118)"/>
<path d="M0 0 C0.99 0.33 1.98 0.66 3 1 C1.63981009 4.11963955 0.16739866 6.00834822 -2.4375 8.1875 C-3.33275391 8.95126953 -3.33275391 8.95126953 -4.24609375 9.73046875 C-6 11 -6 11 -9 12 C-9 9 -9 9 -7.03125 6.73828125 C-5.77828125 5.53751953 -5.77828125 5.53751953 -4.5 4.3125 C-3.6646875 3.50425781 -2.829375 2.69601563 -1.96875 1.86328125 C-1.3190625 1.24839844 -0.669375 0.63351563 0 0 Z " fill="#4ADFD2" transform="translate(59,46)"/>
<path d="M0 0 C0.66 1.32 1.32 2.64 2 4 C0.54782324 5.50596108 -0.91192861 7.00462104 -2.375 8.5 C-3.18710937 9.3353125 -3.99921875 10.170625 -4.8359375 11.03125 C-7 13 -7 13 -9 13 C-8.51286902 8.58489226 -7.14946803 6.69553355 -3.9375 3.6875 C-3.20402344 2.99011719 -2.47054687 2.29273437 -1.71484375 1.57421875 C-1.14894531 1.05472656 -0.58304688 0.53523438 0 0 Z " fill="#776AEF" transform="translate(39,66)"/>
<path d="M0 0 C0.4375 2.5625 0.4375 2.5625 0 6 C-2.0609281 8.64749994 -4.39518761 10.88866526 -7 13 C-7.33 13 -7.66 13 -8 13 C-8.4375 10.4375 -8.4375 10.4375 -8 7 C-2.5508982 0 -2.5508982 0 0 0 Z " fill="#6E69DF" transform="translate(40,31)"/>
<path d="M0 0 C5.28 0 10.56 0 16 0 C16.33 0.99 16.66 1.98 17 3 C11.72 3 6.44 3 1 3 C0.67 2.01 0.34 1.02 0 0 Z " fill="#40A5EB" transform="translate(70,58)"/>
<path d="M0 0 C3.21043882 1.38188453 5.04936365 2.92421903 7.25 5.625 C8.03117187 6.57246094 8.03117187 6.57246094 8.828125 7.5390625 C9.40820312 8.26222656 9.40820312 8.26222656 10 9 C9.34 9 8.68 9 8 9 C7.67 9.99 7.34 10.98 7 12 C2.5991297 8.17819158 1.19194469 5.52628901 0 0 Z " fill="#48CEBC" transform="translate(57,109)"/>
<path d="M0 0 C0.66 0 1.32 0 2 0 C2.391875 0.680625 2.78375 1.36125 3.1875 2.0625 C5.5936756 5.9621639 8.70537135 8.84827091 12 12 C12.66 12.66 13.32 13.32 14 14 C13.01 14.33 12.02 14.66 11 15 C7.04 11.04 3.08 7.08 -1 3 C-0.67 2.01 -0.34 1.02 0 0 Z " fill="#120620" transform="translate(14,62)"/>
<path d="M0 0 C4.07763771 2.86536704 6.02677065 5.43041625 8 10 C7.01 10.33 6.02 10.66 5 11 C3.82737096 9.88121617 2.66204862 8.75476949 1.5 7.625 C0.8503125 6.99851562 0.200625 6.37203125 -0.46875 5.7265625 C-2 4 -2 4 -2 2 C-1.34 2 -0.68 2 0 2 C0 1.34 0 0.68 0 0 Z " fill="#40B2D6" transform="translate(76,93)"/>
<path d="M0 0 C2.79653096 1.9360599 4.68661893 3.28106695 6.0625 6.4375 C5.97544886 10.0065968 4.39076481 11.46434035 2 14 C0.68 13.67 -0.64 13.34 -2 13 C-1.34 12.67 -0.68 12.34 0 12 C1.46894718 8.43372269 2.41511612 5.18604605 1.125 1.5 C0.568125 0.7575 0.568125 0.7575 0 0 Z " fill="#3874F7" transform="translate(91,108)"/>
<path d="M0 0 C0.66 0.99 1.32 1.98 2 3 C0.47291037 6.43595166 -1.59927045 9.11912454 -4 12 C-4.33 11.01 -4.66 10.02 -5 9 C-5.66 8.34 -6.32 7.68 -7 7 C-4.69 4.69 -2.38 2.38 0 0 Z " fill="#994AE3" transform="translate(43,79)"/>
<path d="M0 0 C5.6 3.28695652 5.6 3.28695652 7.4375 6.5625 C8 9 8 9 7 12 C1.21538462 6.83076923 1.21538462 6.83076923 0.125 2.625 C0.08375 1.75875 0.0425 0.8925 0 0 Z " fill="#6686D9" transform="translate(51,103)"/>
<path d="M0 0 C0.99 0.33 1.98 0.66 3 1 C1.4169423 5.2742558 -1.50568404 7.26531794 -5 10 C-5.68359375 8.203125 -5.68359375 8.203125 -6 6 C-4.78515625 4.296875 -4.78515625 4.296875 -3.0625 2.75 C-2.21365234 1.96882813 -2.21365234 1.96882813 -1.34765625 1.171875 C-0.90292969 0.78515625 -0.45820312 0.3984375 0 0 Z " fill="#3E98EB" transform="translate(81,24)"/>
<path d="M0 0 C0.556875 0.33 1.11375 0.66 1.6875 1 C4.30284522 2.1309601 6.1806646 2.15662974 9 2 C9.5625 3.9375 9.5625 3.9375 10 6 C9 7 9 7 6.125 7.375 C3 7 3 7 1.125 4.625 C0 2 0 2 0 0 Z " fill="#864BF1" transform="translate(21,74)"/>
<path d="M0 0 C-0.30618405 3.67420866 -0.75771784 4.78135513 -3.5625 7.3125 C-4.366875 7.869375 -5.17125 8.42625 -6 9 C-6.66 8.01 -7.32 7.02 -8 6 C-7.0479279 4.99403703 -6.08812654 3.99538437 -5.125 3 C-4.59132813 2.443125 -4.05765625 1.88625 -3.5078125 1.3125 C-2 0 -2 0 0 0 Z " fill="#41ADE2" transform="translate(76,31)"/>
<path d="M0 0 C3.38552696 1.45094013 5.68132949 3.1216504 8 6 C8.75 9.25 8.75 9.25 9 12 C5.74483572 8.83525695 2.67991207 5.67247209 0 2 C0 1.34 0 0.68 0 0 Z " fill="#854EF1" transform="translate(43,96)"/>
<path d="M0 0 C0 4.09939665 -1.52298101 5.78656995 -4 9 C-6.75 10.875 -6.75 10.875 -9 12 C-9 9 -9 9 -7.03125 6.73828125 C-5.77828125 5.53751953 -5.77828125 5.53751953 -4.5 4.3125 C-3.6646875 3.50425781 -2.829375 2.69601563 -1.96875 1.86328125 C-1.3190625 1.24839844 -0.669375 0.63351563 0 0 Z " fill="#3E9AEA" transform="translate(89,69)"/>
<path d="M0 0 C1.79158489 -0.02696365 3.58328473 -0.04637917 5.375 -0.0625 C6.37273437 -0.07410156 7.37046875 -0.08570313 8.3984375 -0.09765625 C11 0 11 0 13 1 C13 1.66 13 2.32 13 3 C9.04 3 5.08 3 1 3 C0.67 2.01 0.34 1.02 0 0 Z " fill="#3F9AF0" transform="translate(73,6)"/>
<path d="M0 0 C0.66 1.32 1.32 2.64 2 4 C0.35830472 6.02054804 -1.30911778 8.02043058 -3 10 C-3.33 10 -3.66 10 -4 10 C-4.25 7.25 -4.25 7.25 -4 4 C-2 1.625 -2 1.625 0 0 Z " fill="#609DD4" transform="translate(58,64)"/>
<path d="M0 0 C1.17539996 0.92652701 2.34010577 1.86663387 3.5 2.8125 C4.1496875 3.33457031 4.799375 3.85664062 5.46875 4.39453125 C7 6 7 6 7 9 C6.01 9.33 5.02 9.66 4 10 C2.5 8.75 2.5 8.75 1 7 C1 5.68 1 4.36 1 3 C0.67 2.01 0.34 1.02 0 0 Z " fill="#3C94E2" transform="translate(81,98)"/>
<path d="M0 0 C9.57 0 19.14 0 29 0 C29 0.33 29 0.66 29 1 C19.43 1 9.86 1 0 1 C0 0.67 0 0.34 0 0 Z " fill="#4B9BB1" transform="translate(64,56)"/>
<path d="M0 0 C8.57142857 -0.28571429 8.57142857 -0.28571429 12 2 C9.11788698 2.96070434 7.30149956 3.10581883 4.3125 3.0625 C3.10013672 3.04896484 3.10013672 3.04896484 1.86328125 3.03515625 C0.94095703 3.01775391 0.94095703 3.01775391 0 3 C0 2.01 0 1.02 0 0 Z " fill="#44B9E5" transform="translate(65,6)"/>
<path d="M0 0 C9.24 0 18.48 0 28 0 C28 0.33 28 0.66 28 1 C18.76 1 9.52 1 0 1 C0 0.67 0 0.34 0 0 Z " fill="#3EACE8" transform="translate(65,123)"/>
<path d="M0 0 C0.99 1.485 0.99 1.485 2 3 C2.66 2.67 3.32 2.34 4 2 C6 5 6 5 6 8 C5.01 8.33 4.02 8.66 3 9 C1.5 7.875 1.5 7.875 0 6 C-0.1875 2.8125 -0.1875 2.8125 0 0 Z " fill="#41BECC" transform="translate(70,87)"/>
<path d="M0 0 C9.24 0 18.48 0 28 0 C28 0.33 28 0.66 28 1 C18.76 1 9.52 1 0 1 C0 0.67 0 0.34 0 0 Z " fill="#3D95F4" transform="translate(65,4)"/>
<path d="M0 0 C1.12894876 0.93274109 2.25300876 1.87140122 3.375 2.8125 C4.00148438 3.33457031 4.62796875 3.85664062 5.2734375 4.39453125 C7 6 7 6 9 9 C6 9 6 9 4.39453125 7.79296875 C3.87246094 7.26316406 3.35039062 6.73335938 2.8125 6.1875 C2.01779297 5.40439453 2.01779297 5.40439453 1.20703125 4.60546875 C0 3 0 3 0 0 Z " fill="#9D4CEA" transform="translate(13,65)"/>
<path d="M0 0 C0.99 0.33 1.98 0.66 3 1 C2.9071875 2.11375 2.9071875 2.11375 2.8125 3.25 C3.03094296 6.45383006 3.90250005 7.64031256 6 10 C2.66282451 8.6190998 0.77698964 7.1798762 -1 4 C-0.6875 1.75 -0.6875 1.75 0 0 Z " fill="#B452F4" transform="translate(36,87)"/>
<path d="M0 0 C0.25 2.8125 0.25 2.8125 0 6 C-2 7.875 -2 7.875 -4 9 C-4.368 3.48 -4.368 3.48 -2.5625 1.125 C-1 0 -1 0 0 0 Z " fill="#7462E6" transform="translate(54,69)"/>
<path d="M0 0 C0.25 2.8125 0.25 2.8125 0 6 C-2 7.875 -2 7.875 -4 9 C-4.368 3.48 -4.368 3.48 -2.5625 1.125 C-1 0 -1 0 0 0 Z " fill="#638FD5" transform="translate(40,31)"/>
<path d="M0 0 C2.31 0 4.62 0 7 0 C7 0.99 7 1.98 7 3 C4.36 3 1.72 3 -1 3 C-0.67 2.01 -0.34 1.02 0 0 Z " fill="#44BBE4" transform="translate(74,119)"/>
<path d="M0 0 C2.64 0 5.28 0 8 0 C8.33 0.99 8.66 1.98 9 3 C6.36 3 3.72 3 1 3 C0.67 2.01 0.34 1.02 0 0 Z " fill="#46C5DF" transform="translate(70,58)"/>
<path d="M0 0 C0.99 0.33 1.98 0.66 3 1 C2 4 2 4 0.125 5.1875 C-2 6 -2 6 -5 6 C-3.35 4.02 -1.7 2.04 0 0 Z " fill="#47D2D3" transform="translate(59,46)"/>
<path d="M0 0 C1.32 0.66 2.64 1.32 4 2 C2.35 3.32 0.7 4.64 -1 6 C-1.66 5.01 -2.32 4.02 -3 3 C-2.01 2.01 -1.02 1.02 0 0 Z " fill="#3B87F1" transform="translate(85,20)"/>
<path d="M0 0 C0.66 1.32 1.32 2.64 2 4 C0.625 5.5 0.625 5.5 -1 7 C-1.66 7 -2.32 7 -3 7 C-2.25 2.25 -2.25 2.25 0 0 Z " fill="#699AE2" transform="translate(39,66)"/>
<path d="M0 0 C0.66 1.32 1.32 2.64 2 4 C0.68 5.32 -0.64 6.64 -2 8 C-2.125 5.125 -2.125 5.125 -2 2 C-1.34 1.34 -0.68 0.68 0 0 Z " fill="#56B3C9" transform="translate(42,28)"/>
<path d="M0 0 C1.32 1.65 2.64 3.3 4 5 C3.01 5.66 2.02 6.32 1 7 C-0.5 5.625 -0.5 5.625 -2 4 C-2 3.34 -2 2.68 -2 2 C-1.34 2 -0.68 2 0 2 C0 1.34 0 0.68 0 0 Z " fill="#3DA2D9" transform="translate(80,97)"/>
<path d="M0 0 C0 0.99 0 1.98 0 3 C-2.5 5.1875 -2.5 5.1875 -5 7 C-4.75 4.625 -4.75 4.625 -4 2 C-1.9375 0.6875 -1.9375 0.6875 0 0 Z " fill="#42B4E1" transform="translate(81,79)"/>
<path d="M0 0 C0.625 1.8125 0.625 1.8125 1 4 C0.01 5.485 0.01 5.485 -1 7 C-1.66 7 -2.32 7 -3 7 C-2.25 2.25 -2.25 2.25 0 0 Z " fill="#5CC4D7" transform="translate(43,62)"/>
<path d="M0 0 C2.31 0.33 4.62 0.66 7 1 C6.67 1.66 6.34 2.32 6 3 C4.35 3 2.7 3 1 3 C0.67 2.01 0.34 1.02 0 0 Z " fill="#4ADFD7" transform="translate(65,58)"/>
<path d="M0 0 C3.7952131 1.49097658 5.61042731 3.75700849 8 7 C4.2047869 5.50902342 2.38957269 3.24299151 0 0 Z " fill="#8B30EF" transform="translate(43,102)"/>
<path d="M0 0 C0.99 0.495 0.99 0.495 2 1 C2 2.98 2 4.96 2 7 C1.67 7 1.34 7 1 7 C0.67 4.69 0.34 2.38 0 0 Z " fill="#2B52E8" transform="translate(96,8)"/>
<path d="M0 0 C1.98 0 3.96 0 6 0 C6 0.33 6 0.66 6 1 C4.02 1 2.04 1 0 1 C0 0.67 0 0.34 0 0 Z " fill="#7849F0" transform="translate(24,82)"/>
<path d="M0 0 C0.33 0 0.66 0 1 0 C1 1.98 1 3.96 1 6 C0.67 6 0.34 6 0 6 C0 4.02 0 2.04 0 0 Z " fill="#2A7FFF" transform="translate(97,61)"/>
<path d="M0 0 C0.99 0.33 1.98 0.66 3 1 C2.01 1 1.02 1 0 1 C0 0.67 0 0.34 0 0 Z " fill="#4010DF" transform="translate(21,80)"/>
<path d="" fill="#1177FF" transform="translate(0,0)"/>
<path d="" fill="#4DBEE7" transform="translate(0,0)"/>
<path d="" fill="#AA00FF" transform="translate(0,0)"/>
<path d="" fill="#D455FF" transform="translate(0,0)"/>
<path d="M0 0 C2 1 2 1 2 1 Z " fill="#20BFFF" transform="translate(93,122)"/>
<path d="" fill="#00BFFF" transform="translate(0,0)"/>
<path d="" fill="#4A6AFF" transform="translate(0,0)"/>
<path d="" fill="#0000FF" transform="translate(0,0)"/>
<path d="" fill="#BF40FF" transform="translate(0,0)"/>
<path d="" fill="#9F60FF" transform="translate(0,0)"/>
<path d="" fill="#DF20FF" transform="translate(0,0)"/>
<path d="" fill="#D42AFF" transform="translate(0,0)"/>
<path d="" fill="#DF60FF" transform="translate(0,0)"/>
<path d="" fill="#DF60FF" transform="translate(0,0)"/>
<path d="M0 0 C2 1 2 1 2 1 Z " fill="#2AD4D4" transform="translate(63,5)"/>
<path d="" fill="#40BFBF" transform="translate(0,0)"/>
<path d="" fill="#0080FF" transform="translate(0,0)"/>
<path d="" fill="#40FFBF" transform="translate(0,0)"/>
<path d="" fill="#55D5D5" transform="translate(0,0)"/>
<path d="" fill="#55FFD5" transform="translate(0,0)"/>
<path d="" fill="#55FFD5" transform="translate(0,0)"/>
<path d="" fill="#55D5D5" transform="translate(0,0)"/>
<path d="" fill="#55D5D5" transform="translate(0,0)"/>
<path d="" fill="#55D5D5" transform="translate(0,0)"/>
<path d="" fill="#55AAD5" transform="translate(0,0)"/>
<path d="" fill="#55AAFF" transform="translate(0,0)"/>
<path d="" fill="#5580D5" transform="translate(0,0)"/>
<path d="" fill="#5555FF" transform="translate(0,0)"/>
<path d="" fill="#5580D5" transform="translate(0,0)"/>
<path d="" fill="#3366CC" transform="translate(0,0)"/>
<path d="" fill="#6699FF" transform="translate(0,0)"/>
<path d="" fill="#3366FF" transform="translate(0,0)"/>
<path d="" fill="#6666CC" transform="translate(0,0)"/>
<path d="" fill="#3399FF" transform="translate(0,0)"/>
<path d="" fill="#3399FF" transform="translate(0,0)"/>
<path d="" fill="#3399FF" transform="translate(0,0)"/>
<path d="" fill="#3399FF" transform="translate(0,0)"/>
<path d="" fill="#3399FF" transform="translate(0,0)"/>
<path d="" fill="#3399FF" transform="translate(0,0)"/>
<path d="" fill="#3399FF" transform="translate(0,0)"/>
<path d="" fill="#3399FF" transform="translate(0,0)"/>
<path d="" fill="#8080FF" transform="translate(0,0)"/>
<path d="" fill="#3399FF" transform="translate(0,0)"/>
<path d="" fill="#8080FF" transform="translate(0,0)"/>
<path d="" fill="#3399FF" transform="translate(0,0)"/>
<path d="" fill="#AA55AA" transform="translate(0,0)"/>
<path d="" fill="#3399FF" transform="translate(0,0)"/>
<path d="" fill="#AA55AA" transform="translate(0,0)"/>
<path d="" fill="#3399CC" transform="translate(0,0)"/>
<path d="" fill="#AA55FF" transform="translate(0,0)"/>
<path d="" fill="#33CCFF" transform="translate(0,0)"/>
<path d="" fill="#AA55FF" transform="translate(0,0)"/>
<path d="" fill="#3399CC" transform="translate(0,0)"/>
<path d="" fill="#AA55AA" transform="translate(0,0)"/>
<path d="" fill="#33CCFF" transform="translate(0,0)"/>
<path d="" fill="#33CCCC" transform="translate(0,0)"/>
<path d="" fill="#33CCCC" transform="translate(0,0)"/>
<path d="" fill="#33CCCC" transform="translate(0,0)"/>
<path d="" fill="#55AAD5" transform="translate(0,0)"/>
<path d="" fill="#2BAAD5" transform="translate(0,0)"/>
<path d="" fill="#2BAAD5" transform="translate(0,0)"/>
<path d="" fill="#AA55FF" transform="translate(0,0)"/>
<path d="" fill="#2BAAD5" transform="translate(0,0)"/>
<path d="" fill="#BF40FF" transform="translate(0,0)"/>
<path d="" fill="#2BAAD5" transform="translate(0,0)"/>
<path d="" fill="#AA55D5" transform="translate(0,0)"/>
<path d="" fill="#2BAAD5" transform="translate(0,0)"/>
<path d="" fill="#9966FF" transform="translate(0,0)"/>
<path d="" fill="#2BAAD5" transform="translate(0,0)"/>
<path d="" fill="#AA55D5" transform="translate(0,0)"/>
<path d="" fill="#8040FF" transform="translate(0,0)"/>
<path d="" fill="#2BAAD5" transform="translate(0,0)"/>
<path d="" fill="#9966FF" transform="translate(0,0)"/>
<path d="" fill="#AA55FF" transform="translate(0,0)"/>
<path d="" fill="#2B80D5" transform="translate(0,0)"/>
<path d="" fill="#9966FF" transform="translate(0,0)"/>
<path d="" fill="#8080FF" transform="translate(0,0)"/>
<path d="" fill="#2B80D5" transform="translate(0,0)"/>
<path d="" fill="#8055D5" transform="translate(0,0)"/>
<path d="" fill="#8080FF" transform="translate(0,0)"/>
<path d="" fill="#2B80D5" transform="translate(0,0)"/>
<path d="" fill="#9966FF" transform="translate(0,0)"/>
<path d="" fill="#8080FF" transform="translate(0,0)"/>
<path d="" fill="#2B80D5" transform="translate(0,0)"/>
<path d="" fill="#8055D5" transform="translate(0,0)"/>
<path d="" fill="#8080FF" transform="translate(0,0)"/>
<path d="" fill="#2B80D5" transform="translate(0,0)"/>
<path d="" fill="#9966FF" transform="translate(0,0)"/>
<path d="" fill="#8080FF" transform="translate(0,0)"/>
<path d="" fill="#2B80D5" transform="translate(0,0)"/>
<path d="" fill="#8055D5" transform="translate(0,0)"/>
<path d="" fill="#8080FF" transform="translate(0,0)"/>
<path d="" fill="#2B80D5" transform="translate(0,0)"/>
<path d="" fill="#9966FF" transform="translate(0,0)"/>
<path d="" fill="#8080FF" transform="translate(0,0)"/>
<path d="" fill="#2B80D5" transform="translate(0,0)"/>
<path d="" fill="#9966FF" transform="translate(0,0)"/>
<path d="" fill="#8080FF" transform="translate(0,0)"/>
<path d="" fill="#2B80D5" transform="translate(0,0)"/>
<path d="" fill="#8055D5" transform="translate(0,0)"/>
<path d="" fill="#FF80FF" transform="translate(0,0)"/>
<path d="" fill="#2B80D5" transform="translate(0,0)"/>
<path d="" fill="#6666FF" transform="translate(0,0)"/>
<path d="" fill="#8080FF" transform="translate(0,0)"/>
<path d="" fill="#3366FF" transform="translate(0,0)"/>
<path d="" fill="#8080D5" transform="translate(0,0)"/>
<path d="" fill="#8080FF" transform="translate(0,0)"/>
<path d="" fill="#4080FF" transform="translate(0,0)"/>
<path d="" fill="#6699FF" transform="translate(0,0)"/>
<path d="" fill="#4080FF" transform="translate(0,0)"/>
<path d="" fill="#5580D5" transform="translate(0,0)"/>
<path d="" fill="#6699FF" transform="translate(0,0)"/>
<path d="" fill="#55AAD5" transform="translate(0,0)"/>
<path d="" fill="#66CCFF" transform="translate(0,0)"/>
<path d="" fill="#66CCCC" transform="translate(0,0)"/>
<path d="" fill="#55D5D5" transform="translate(0,0)"/>
<path d="" fill="#66FFCC" transform="translate(0,0)"/>
<path d="" fill="#4080FF" transform="translate(0,0)"/>
<path d="" fill="#55D5D5" transform="translate(0,0)"/>
<path d="" fill="#4080FF" transform="translate(0,0)"/>
<path d="" fill="#33FFCC" transform="translate(0,0)"/>
<path d="" fill="#BF40FF" transform="translate(0,0)"/>
<path d="" fill="#4080BF" transform="translate(0,0)"/>
<path d="" fill="#40FFBF" transform="translate(0,0)"/>
<path d="" fill="#CC66FF" transform="translate(0,0)"/>
<path d="" fill="#4080FF" transform="translate(0,0)"/>
<path d="" fill="#55AAAA" transform="translate(0,0)"/>
<path d="" fill="#AA55FF" transform="translate(0,0)"/>
<path d="" fill="#AA55FF" transform="translate(0,0)"/>
<path d="" fill="#AA55FF" transform="translate(0,0)"/>
<path d="" fill="#AA55FF" transform="translate(0,0)"/>
<path d="" fill="#AA55FF" transform="translate(0,0)"/>
<path d="" fill="#AA55FF" transform="translate(0,0)"/>
<path d="" fill="#AA55FF" transform="translate(0,0)"/>
<path d="" fill="#AA55FF" transform="translate(0,0)"/>
<path d="" fill="#AA55FF" transform="translate(0,0)"/>
<path d="" fill="#8055FF" transform="translate(0,0)"/>
<path d="" fill="#AA55FF" transform="translate(0,0)"/>
<path d="" fill="#8055FF" transform="translate(0,0)"/>
<path d="" fill="#8055FF" transform="translate(0,0)"/>
<path d="" fill="#8055FF" transform="translate(0,0)"/>
<path d="" fill="#8055FF" transform="translate(0,0)"/>
<path d="" fill="#8055FF" transform="translate(0,0)"/>
<path d="" fill="#8055FF" transform="translate(0,0)"/>
<path d="" fill="#8055FF" transform="translate(0,0)"/>
<path d="" fill="#8055FF" transform="translate(0,0)"/>
<path d="" fill="#8055FF" transform="translate(0,0)"/>
<path d="" fill="#8055FF" transform="translate(0,0)"/>
<path d="" fill="#8080FF" transform="translate(0,0)"/>
<path d="" fill="#8080FF" transform="translate(0,0)"/>
<path d="" fill="#8080D5" transform="translate(0,0)"/>
<path d="" fill="#8080D5" transform="translate(0,0)"/>
<path d="" fill="#5580D5" transform="translate(0,0)"/>
<path d="" fill="#55AAD5" transform="translate(0,0)"/>
<path d="" fill="#55AAD5" transform="translate(0,0)"/>
<path d="" fill="#55AAD5" transform="translate(0,0)"/>
<path d="" fill="#55D5D5" transform="translate(0,0)"/>
<path d="" fill="#55D5D5" transform="translate(0,0)"/>
<path d="" fill="#55D5D5" transform="translate(0,0)"/>
<path d="" fill="#55D5D5" transform="translate(0,0)"/>
<path d="" fill="#55FFD5" transform="translate(0,0)"/>
<path d="" fill="#55D5D5" transform="translate(0,0)"/>
<path d="" fill="#55FFD5" transform="translate(0,0)"/>
<path d="" fill="#55FFD5" transform="translate(0,0)"/>
<path d="" fill="#55D5D5" transform="translate(0,0)"/>
<path d="" fill="#55D5D5" transform="translate(0,0)"/>
<path d="" fill="#55D5D5" transform="translate(0,0)"/>
<path d="" fill="#55D5D5" transform="translate(0,0)"/>
<path d="" fill="#4080FF" transform="translate(0,0)"/>
<path d="" fill="#55D5D5" transform="translate(0,0)"/>
<path d="" fill="#4080FF" transform="translate(0,0)"/>
<path d="" fill="#55D5D5" transform="translate(0,0)"/>
<path d="" fill="#55D5D5" transform="translate(0,0)"/>
<path d="" fill="#55D5D5" transform="translate(0,0)"/>
<path d="" fill="#55D5D5" transform="translate(0,0)"/>
<path d="" fill="#55D5D5" transform="translate(0,0)"/>
<path d="" fill="#55D5D5" transform="translate(0,0)"/>
<path d="" fill="#55D5D5" transform="translate(0,0)"/>
<path d="" fill="#55D5D5" transform="translate(0,0)"/>
<path d="" fill="#4080FF" transform="translate(0,0)"/>
<path d="" fill="#55AAD5" transform="translate(0,0)"/>
<path d="" fill="#4080FF" transform="translate(0,0)"/>
<path d="" fill="#40BFFF" transform="translate(0,0)"/>
<path d="" fill="#4080FF" transform="translate(0,0)"/>
</svg>
